<svg width="123" height="18" viewBox="0 0 123 18" fill="none" xmlns="http://www.w3.org/2000/svg">
<path d="M0 13.9124C0.075 13.3524 0.1475 12.7924 0.2175 12.2324C0.2875 11.6724 0.3625 11.0649 0.4425 10.4099L0.885 6.82488C0.97 6.17988 1.0475 5.56988 1.1175 4.99488C1.1875 4.41988 1.26 3.82738 1.335 3.21738H3.8325C4.0725 3.82738 4.3 4.41238 4.515 4.97238C4.735 5.52738 4.9525 6.07988 5.1675 6.62988L6.4425 9.89987H6.6075L7.845 6.63738C8.055 6.08238 8.2625 5.53238 8.4675 4.98738C8.6775 4.44238 8.8975 3.85238 9.1275 3.21738H11.595C11.67 3.81738 11.7425 4.40488 11.8125 4.97988C11.8875 5.55488 11.9675 6.17238 12.0525 6.83238L12.51 10.4324C12.59 11.0824 12.665 11.6824 12.735 12.2324C12.81 12.7824 12.8825 13.3424 12.9525 13.9124H10.605C10.515 13.1624 10.4275 12.4499 10.3425 11.7749C10.2575 11.0999 10.18 10.4674 10.11 9.87737L9.795 7.34238H9.63L8.7 10.0649C8.475 10.7349 8.2475 11.3999 8.0175 12.0599C7.7925 12.7149 7.5825 13.3324 7.3875 13.9124H5.7525C5.6125 13.5374 5.46 13.1349 5.295 12.7049C5.135 12.2749 4.97 11.8374 4.8 11.3924C4.63 10.9424 4.4625 10.5024 4.2975 10.0724L3.2625 7.34238H3.0975L2.79 9.86237C2.72 10.4574 2.6425 11.0949 2.5575 11.7749C2.4775 12.4499 2.3925 13.1624 2.3025 13.9124H0Z" fill="white"/>
<path d="M19.023 13.9124C19.213 13.3374 19.4105 12.7324 19.6155 12.0974C19.8255 11.4624 20.023 10.8599 20.208 10.2899L21.4155 6.62238C21.6305 5.95738 21.8255 5.35988 22.0005 4.82988C22.1755 4.29488 22.3505 3.75738 22.5255 3.21738H25.7055C25.8855 3.77738 26.0605 4.32238 26.2305 4.85238C26.4055 5.38238 26.6005 5.97238 26.8155 6.62238L28.008 10.2974C28.203 10.8874 28.4005 11.4949 28.6005 12.1199C28.8055 12.7449 29.0005 13.3424 29.1855 13.9124H26.6355C26.4755 13.3424 26.3105 12.7599 26.1405 12.1649C25.9705 11.5649 25.808 10.9974 25.653 10.4624L24.183 5.30988H24.003L22.518 10.4099C22.358 10.9649 22.188 11.5474 22.008 12.1574C21.833 12.7624 21.663 13.3474 21.498 13.9124H19.023ZM21.603 11.6774L21.8655 9.83237H26.643L26.853 11.6774H21.603Z" fill="white"/>
<path d="M35.5393 13.9124C35.5393 13.3374 35.5393 12.7799 35.5393 12.2399C35.5393 11.6999 35.5393 11.0949 35.5393 10.4249V6.79488C35.5393 6.10488 35.5393 5.48238 35.5393 4.92738C35.5393 4.37238 35.5393 3.80238 35.5393 3.21738C35.8643 3.21738 36.2468 3.21738 36.6868 3.21738C37.1318 3.21738 37.6068 3.21738 38.1118 3.21738C38.6168 3.21738 39.1268 3.21738 39.6418 3.21738C40.5118 3.21738 41.2468 3.31488 41.8468 3.50988C42.4518 3.69988 42.9093 4.01988 43.2193 4.46988C43.5343 4.91988 43.6918 5.53238 43.6918 6.30738C43.6918 6.92238 43.5693 7.47488 43.3243 7.96488C43.0843 8.45488 42.6968 8.84238 42.1618 9.12738C41.6268 9.41238 40.9268 9.55487 40.0618 9.55487L41.0143 8.65487L42.4693 10.7999C42.6943 11.1299 42.9343 11.4849 43.1893 11.8649C43.4443 12.2399 43.6918 12.6074 43.9318 12.9674C44.1768 13.3224 44.3918 13.6374 44.5768 13.9124H41.7793C41.5093 13.4924 41.2493 13.0899 40.9993 12.7049C40.7493 12.3199 40.5068 11.9449 40.2718 11.5799L38.5393 8.84988L40.0018 9.96737H37.5193V8.20488H39.3043C39.7043 8.20488 40.0393 8.15738 40.3093 8.06238C40.5843 7.96238 40.7918 7.79488 40.9318 7.55988C41.0718 7.32488 41.1418 7.00238 41.1418 6.59238C41.1418 6.28738 41.0968 6.04238 41.0068 5.85738C40.9168 5.66738 40.7943 5.51988 40.6393 5.41488C40.4893 5.30988 40.3193 5.23988 40.1293 5.20488C39.9443 5.16988 39.7568 5.15238 39.5668 5.15238H36.2068L37.9618 3.60738C37.9618 4.21238 37.9618 4.79238 37.9618 5.34738C37.9618 5.89738 37.9618 6.50988 37.9618 7.18488V10.4249C37.9618 11.0949 37.9618 11.6999 37.9618 12.2399C37.9618 12.7799 37.9618 13.3374 37.9618 13.9124H35.5393Z" fill="white"/>
<path d="M57.0754 13.9124C56.7454 13.4374 56.4329 12.9924 56.1379 12.5774C55.8479 12.1574 55.5629 11.7449 55.2829 11.3399L53.8729 9.32238H53.1828V7.38738H53.8429L55.1029 5.73738C55.4029 5.34738 55.7004 4.95988 55.9953 4.57488C56.2903 4.18488 56.6328 3.73238 57.0229 3.21738H59.8654C59.4004 3.78238 58.9454 4.33738 58.5004 4.88238C58.0604 5.42738 57.6179 5.97738 57.1729 6.53238L55.4779 8.62487L55.4328 7.53738L57.3154 10.1399C57.6054 10.5399 57.9153 10.9699 58.2453 11.4299C58.5804 11.8899 58.9054 12.3374 59.2204 12.7724C59.5354 13.2074 59.8129 13.5874 60.0529 13.9124H57.0754ZM50.9179 13.9124C50.9179 13.3374 50.9179 12.7799 50.9179 12.2399C50.9179 11.6999 50.9179 11.0949 50.9179 10.4249V6.79488C50.9179 6.10488 50.9179 5.48238 50.9179 4.92738C50.9179 4.37238 50.9179 3.80238 50.9179 3.21738H53.3779C53.3779 3.80238 53.3779 4.37238 53.3779 4.92738C53.3779 5.48238 53.3779 6.10488 53.3779 6.79488V10.4249C53.3779 11.0949 53.3779 11.6999 53.3779 12.2399C53.3779 12.7799 53.3779 13.3374 53.3779 13.9124H50.9179Z" fill="white"/>
<path d="M87.4925 14.1149C86.5275 14.1149 85.6925 13.9674 84.9875 13.6724C84.2825 13.3724 83.7025 12.9649 83.2475 12.4499C82.7925 11.9299 82.4525 11.3374 82.2275 10.6724C82.0075 10.0074 81.8975 9.30737 81.8975 8.57237C81.8975 7.53237 82.1025 6.59238 82.5125 5.75238C82.9275 4.90738 83.5425 4.23738 84.3575 3.74238C85.1775 3.24738 86.2 2.99988 87.425 2.99988C88.355 2.99988 89.1675 3.14488 89.8625 3.43488C90.5575 3.71988 91.135 4.11738 91.595 4.62738C92.06 5.13738 92.4075 5.72738 92.6375 6.39738C92.8675 7.06738 92.9825 7.78738 92.9825 8.55737C92.9825 9.62237 92.77 10.5724 92.345 11.4074C91.925 12.2424 91.3075 12.9024 90.4925 13.3874C89.6775 13.8724 88.6775 14.1149 87.4925 14.1149ZM87.455 12.0824C87.95 12.0824 88.3825 11.9899 88.7525 11.8049C89.1225 11.6149 89.43 11.3549 89.675 11.0249C89.92 10.6949 90.1025 10.3199 90.2225 9.89987C90.3475 9.47487 90.41 9.02738 90.41 8.55737C90.41 8.06238 90.3425 7.60238 90.2075 7.17738C90.0775 6.74738 89.885 6.37238 89.63 6.05238C89.38 5.73238 89.0725 5.48238 88.7075 5.30238C88.3425 5.12238 87.925 5.03238 87.455 5.03238C86.97 5.03238 86.54 5.12488 86.165 5.30988C85.795 5.49488 85.485 5.75238 85.235 6.08238C84.985 6.40738 84.795 6.78238 84.665 7.20738C84.535 7.63238 84.47 8.08238 84.47 8.55737C84.47 9.03238 84.5325 9.48237 84.6575 9.90737C84.7825 10.3274 84.9675 10.7024 85.2125 11.0324C85.4625 11.3574 85.7725 11.6149 86.1425 11.8049C86.5175 11.9899 86.955 12.0824 87.455 12.0824Z" fill="white"/>
<path d="M66.189 13.9123C66.189 13.3373 66.189 12.7798 66.189 12.2398C66.189 11.6998 66.189 11.0948 66.189 10.4248V6.7948C66.189 6.1048 66.189 5.4823 66.189 4.92729C66.189 4.3723 66.189 3.8023 66.189 3.21729H68.3415C68.8415 3.94729 69.314 4.63729 69.759 5.28729C70.204 5.9323 70.649 6.5798 71.094 7.2298L72.834 9.7498H73.014V6.7948C73.014 6.1048 73.014 5.4823 73.014 4.92729C73.014 4.3723 73.014 3.8023 73.014 3.21729H75.3315C75.3315 3.8023 75.3315 4.3723 75.3315 4.92729C75.3315 5.4823 75.3315 6.1048 75.3315 6.7948V10.4248C75.3315 11.0948 75.3315 11.6998 75.3315 12.2398C75.3315 12.7798 75.3315 13.3373 75.3315 13.9123H73.2015C72.7915 13.3123 72.3615 12.6873 71.9115 12.0373C71.4615 11.3873 70.969 10.6773 70.434 9.9073L68.6715 7.3573H68.499V10.4248C68.499 11.0948 68.499 11.6998 68.499 12.2398C68.499 12.7798 68.499 13.3373 68.499 13.9123H66.189Z" fill="white"/>
<path d="M108.726 3.429V5.3665H104.898V14H102.263V5.3665H98.434V3.429H108.726ZM122.146 12.0625V14H114.35V3.429H122.038V5.3665H116.985V7.583H121.805V9.5205H116.985V12.0625H122.146Z" fill="white"/>
</svg>
